<svg width="98" height="86" viewBox="0 0 98 86" fill="none" xmlns="http://www.w3.org/2000/svg">
<path d="M3.61044 60.9118V82.5288H94.3907V60.9118C64.1302 60.9118 33.8709 60.9118 3.61044 60.9118ZM32.0699 64.4758H65.9289C67.1421 64.4758 68.242 64.969 69.0383 65.7622C69.8347 66.5554 70.3298 67.6534 70.3298 68.8595C70.3298 70.0691 69.8347 71.1647 69.0383 71.9579C68.242 72.7511 67.1421 73.2443 65.9289 73.2443H32.0699C30.8567 73.2443 29.7568 72.7511 28.9604 71.9579C28.1641 71.1647 27.669 70.0691 27.669 68.8607C27.669 67.6534 28.1641 66.5554 28.9604 65.7622C29.7568 64.969 30.8567 64.4758 32.0699 64.4758ZM65.9289 67.5238H32.0699C31.7036 67.5238 31.3675 67.6751 31.1242 67.9175C30.8808 68.1599 30.729 68.4947 30.729 68.8595C30.729 69.2255 30.8808 69.5603 31.1242 69.8027C31.3675 70.0451 31.7036 70.1963 32.0699 70.1963H65.9289C66.2951 70.1963 66.6313 70.0451 66.8746 69.8027C67.118 69.5603 67.2698 69.2255 67.2698 68.8607C67.2698 68.4947 67.118 68.1599 66.8746 67.9175C66.6313 67.6751 66.2951 67.5238 65.9289 67.5238ZM6.24037 57.8638V32.4308C4.59471 30.9296 3.30685 29.3251 2.37679 27.6631C0.866056 24.9607 0.298626 22.1131 0.66366 19.2943C1.02628 16.5006 2.3021 13.7598 4.47785 11.2494C6.26085 9.19139 8.65827 7.27977 11.6557 5.61536C18.3708 1.88693 26.9907 0.0233154 35.5853 0.0233154C38.0417 0.0233154 40.503 0.175716 42.9185 0.480519C47.3242 -0.0702856 51.8817 -0.115886 56.3127 0.342517C61.622 -0.208287 67.1156 -0.035485 72.3056 0.863322C77.3992 1.74533 82.2278 3.32934 86.3467 5.61536C89.3429 7.27857 91.7415 9.19139 93.5233 11.2494C95.6991 13.7598 96.9749 16.5006 97.3375 19.2943C97.7026 22.1131 97.1351 24.9607 95.6244 27.6631C94.6943 29.3251 93.4065 30.9296 91.7608 32.4308V57.8638H95.9208C96.7653 57.8638 97.4508 58.5466 97.4508 59.3878V84.0528C97.4508 84.894 96.7653 85.5768 95.9208 85.5768H2.08043C1.23591 85.5768 0.550415 84.894 0.550415 84.0528V59.3878C0.550415 58.5466 1.23591 57.8638 2.08043 57.8638H6.24037ZM88.7008 57.8638V31.754C88.7068 31.328 88.8851 30.9056 89.2333 30.6056C90.8621 29.2063 92.1054 27.7147 92.9595 26.1871C94.1462 24.0643 94.5956 21.8479 94.3137 19.6759C94.0293 17.4787 92.9921 15.285 91.2175 13.2366C89.6622 11.4402 87.5394 9.75419 84.8649 8.26978C81.0616 6.15896 76.5643 4.68895 71.7924 3.86335C71.131 3.74934 70.4659 3.64734 69.7949 3.55734C71.3165 4.16575 72.773 4.85095 74.1512 5.61536C77.1498 7.27977 79.5472 9.19259 81.3302 11.2506C83.506 13.761 84.7806 16.5006 85.1432 19.2931C85.507 22.1131 84.9396 24.9607 83.4301 27.6607C82.5 29.3239 81.211 30.9284 79.5653 32.4308V57.8638H88.7008ZM76.5053 57.8638V31.754C76.5113 31.328 76.6896 30.9056 77.0378 30.6056C78.6666 29.2051 79.9098 27.7147 80.7652 26.1847C81.9519 24.0631 82.4 21.8479 82.1193 19.6747C81.835 17.4787 80.7989 15.2862 79.0244 13.2378C77.4679 11.4414 75.3463 9.75539 72.6694 8.26978C68.7094 6.07256 63.9989 4.56895 59.0137 3.76254C57.4271 3.50574 55.8682 3.32814 54.2695 3.21294C56.1139 3.90295 57.8729 4.70215 59.5173 5.61536C62.5147 7.27977 64.9121 9.19139 66.6951 11.2494C68.8709 13.761 70.1467 16.5006 70.5093 19.2943C70.8743 22.1131 70.3069 24.9619 68.795 27.6631C67.8649 29.3251 66.5771 30.9296 64.9314 32.4308V57.8638H76.5053ZM61.8714 57.8638V31.754C61.8774 31.328 62.0557 30.9056 62.4039 30.6056C64.0327 29.2063 65.276 27.7147 66.1301 26.1871C67.3168 24.0655 67.7673 21.8479 67.4854 19.6759C67.2011 17.4787 66.1638 15.2862 64.3893 13.2366C62.8327 11.4402 60.7112 9.75539 58.0355 8.26978C51.7926 4.80415 43.7016 3.07134 35.5853 3.07134C27.4714 3.07134 19.3804 4.80415 13.1375 8.26978C10.4618 9.75539 8.34022 11.4402 6.78371 13.2366C5.00914 15.285 3.97186 17.4787 3.68754 19.6759C3.40563 21.8479 3.855 24.0643 5.04166 26.1871C5.87895 27.6859 7.09092 29.1487 8.67394 30.5252C9.05343 30.8024 9.3004 31.25 9.3004 31.754V57.8638H61.8714ZM24.4403 36.3032C25.0366 36.8972 25.0366 37.8644 24.4403 38.4584C23.8439 39.0524 22.8729 39.0524 22.2766 38.4584L22.2645 38.4464C21.6682 37.8524 21.6682 36.8852 22.2645 36.2912C22.8609 35.6972 23.8319 35.6972 24.4282 36.2912L24.4403 36.3032ZM38.5598 50.3637C39.1561 50.9577 39.1561 51.9249 38.5598 52.5189C37.9634 53.1129 36.9924 53.1129 36.3961 52.5189L25.9667 42.1304C25.3703 41.5364 25.3703 40.5692 25.9667 39.9752C26.563 39.3812 27.534 39.3812 28.1304 39.9752L38.5598 50.3637ZM46.7303 42.2012C46.1339 41.6072 46.1339 40.64 46.7303 40.046C47.3266 39.452 48.2976 39.452 48.894 40.046L48.906 40.058C49.5024 40.652 49.5024 41.6192 48.906 42.2132C48.3097 42.8073 47.3387 42.8073 46.7423 42.2132L46.7303 42.2012ZM32.6144 28.1371C32.0181 27.5431 32.0181 26.5759 32.6144 25.9819C33.2107 25.3879 34.1818 25.3879 34.7781 25.9819L45.2075 36.3704C45.8038 36.9644 45.8038 37.9316 45.2075 38.5256C44.6111 39.1196 43.6401 39.1196 43.0438 38.5256L32.6144 28.1371ZM24.3511 30.2132C23.7548 29.6191 23.7548 28.6519 24.3511 28.0579C24.9475 27.4639 25.9185 27.4639 26.5148 28.0579L46.823 48.2865C47.4194 48.8805 47.4194 49.8477 46.823 50.4417C46.2267 51.0357 45.2557 51.0357 44.6593 50.4417L24.3511 30.2132Z" fill="#BF2123"/>
</svg>
