<svg width="86" height="92" viewBox="0 0 86 92" fill="none" xmlns="http://www.w3.org/2000/svg">
<path d="M43.342 16.3712C43.456 16.4856 52.804 32.9592 54.4 49.6616C55.54 60.8728 61.582 62.0168 66.484 62.932C69.79 63.504 71.842 64.076 72.64 66.364L76.288 76.5456L70.246 78.7192C69.676 78.948 69.334 79.6344 69.562 80.2064C69.676 80.664 70.132 81.0072 70.588 81.0072C70.702 81.0072 70.816 81.0072 70.93 80.8928L85.18 75.6304C85.75 75.4016 86.092 74.7152 85.864 74.1432C85.636 73.5712 84.952 73.228 84.382 73.4568L78.34 75.6304L74.692 65.4488C73.78 63.0464 75.148 61.3304 77.2 58.8136C80.392 54.924 84.268 50.1192 77.884 40.8528C68.65 27.1248 65.23 8.59202 65.23 8.36322C65.116 8.02002 65.002 7.79122 64.66 7.56242C64.318 7.44802 63.976 7.33362 63.748 7.44802L44.026 14.6552C43.912 14.6552 43.912 14.6552 43.798 14.7696C43.228 15.1128 43 15.7992 43.342 16.3712ZM50.41 25.9808C50.524 25.9808 50.638 25.9808 50.752 25.9808C51.55 25.9808 52.348 25.8664 53.374 25.5232C55.882 24.608 56.908 23.0064 57.82 21.6336C58.618 20.3752 59.302 19.3456 61.012 18.6592C62.836 17.9728 63.976 18.4304 65.458 18.7736C67.51 25.5232 70.93 34.4464 76.174 42.1112C81.532 50.0048 78.682 53.5512 75.604 57.3264C74.35 58.928 72.982 60.5296 72.526 62.36C70.93 61.216 68.878 60.8728 66.94 60.5296C62.152 59.6144 57.706 58.8136 56.68 49.3184C55.768 40.7384 53.032 32.3872 50.41 25.9808ZM45.964 16.3712L63.178 10.0792C63.406 11.3376 63.976 13.6256 64.66 16.2568C63.406 15.9136 62.038 15.9136 60.214 16.4856C57.706 17.4008 56.68 19.0024 55.768 20.3752C54.97 21.6336 54.286 22.6632 52.462 23.3496C51.208 23.8072 50.182 23.8072 49.27 23.464C48.016 20.2608 46.762 17.744 45.964 16.3712Z" fill="#BF2123"/>
<path d="M62.6079 43.1408C62.3799 43.5984 62.3799 44.1704 62.4939 44.7424C62.7219 45.3144 63.064 45.6576 63.52 45.8864L67.282 47.7168C67.51 47.8312 67.8519 47.9456 68.1939 47.9456C68.4219 47.9456 68.6499 47.9456 68.8779 47.8312C69.4479 47.6024 69.7899 47.2592 70.0179 46.8016L71.842 43.0264C72.298 41.9968 71.842 40.7384 70.816 40.2808L66.94 38.4504C66.484 38.2216 65.9139 38.2216 65.3439 38.336C64.7739 38.5648 64.4319 38.908 64.2039 39.3656L62.6079 43.1408ZM64.7739 43.8272L66.37 40.3952L69.79 41.9968L68.1939 45.4288L64.7739 43.8272Z" fill="#BF2123"/>
<path d="M62.95 54.1233L64.888 57.8984C65.116 58.356 65.572 58.6993 66.142 58.9281C66.37 59.0425 66.598 59.0425 66.712 59.0425C67.054 59.0425 67.396 58.9281 67.738 58.8137L71.5 56.8689C72.526 56.2969 72.868 55.0385 72.298 54.0089L70.36 50.2337C70.132 49.7761 69.676 49.4329 69.106 49.2041C68.536 49.0897 67.966 49.0896 67.51 49.3184L63.748 51.2633C62.722 51.8353 62.38 53.0937 62.95 54.1233ZM65.002 53.2081L68.308 51.3777L70.132 54.6953L66.826 56.5257L65.002 53.2081Z" fill="#BF2123"/>
<path d="M56.794 30.2136C55.996 31.0144 55.882 32.2728 56.68 33.188L59.53 36.2768C59.872 36.7344 60.442 36.9632 61.012 36.9632H61.126C61.696 36.9632 62.152 36.7344 62.494 36.3912L65.572 33.5312C66.028 33.188 66.256 32.616 66.256 32.044C66.256 31.472 66.142 31.0144 65.686 30.5568L62.836 27.468C62.038 26.6672 60.784 26.5528 59.872 27.3536L56.794 30.2136ZM58.504 31.7008L61.24 29.0696L63.862 31.8152L61.126 34.4464L58.504 31.7008Z" fill="#BF2123"/>
<path d="M40.3781 8.82085V2.07125C40.3781 1.38485 40.8341 0.927246 41.5181 0.927246C42.2021 0.927246 42.6581 1.38485 42.6581 2.07125V8.82085C42.6581 9.50725 42.2021 9.96485 41.5181 9.96485C40.8341 9.96485 40.3781 9.50725 40.3781 8.82085Z" fill="#BF2123"/>
<path d="M36.844 11.6808C36.616 11.6808 36.502 11.6808 36.274 11.5664L30.46 8.1344C29.89 7.7912 29.776 7.1048 30.004 6.5328C30.346 5.9608 31.03 5.8464 31.6 6.0752L37.414 9.3928C37.984 9.736 38.098 10.4224 37.87 10.9944C37.642 11.452 37.186 11.6808 36.844 11.6808Z" fill="#BF2123"/>
<path d="M43.456 24.8368L23.848 17.5152C23.734 17.5152 23.734 17.5152 23.62 17.5152C23.05 17.4008 22.366 17.8584 22.252 18.4304C22.252 18.6592 18.718 37.192 9.14196 50.92C2.75796 60.1864 6.63396 64.9912 9.71196 68.8808C11.764 71.512 13.018 73.228 12.22 75.516L8.45797 85.6976L2.41596 83.4096C1.84596 83.1808 1.16197 83.524 0.933966 84.096C0.705966 84.668 1.04796 85.3544 1.61796 85.5832L15.868 90.96C15.982 90.96 16.096 91.0744 16.21 91.0744C16.666 91.0744 17.122 90.8456 17.236 90.2736C17.464 89.7016 17.122 89.0152 16.552 88.7864L10.51 86.4984L14.272 76.3168C15.184 73.9144 17.236 73.4568 20.542 72.8848C25.444 71.9696 31.486 70.94 32.74 59.7288C34.45 43.0264 43.912 26.6672 44.026 26.5528C44.14 26.2096 44.254 25.8664 44.14 25.6376C44.026 25.18 43.798 24.9512 43.456 24.8368ZM11.08 52.1784C15.982 45.0856 19.402 36.8488 21.454 30.328C22.024 30.9 22.936 31.472 24.076 31.9296C26.584 32.8448 28.408 32.2728 29.89 31.8152C31.258 31.3576 32.512 31.0144 34.222 31.7008C36.046 32.3872 36.73 33.4168 37.414 34.6752C34.678 41.0816 31.486 50.1192 30.46 59.3856C29.434 68.8808 24.988 69.6816 20.2 70.5968C18.148 70.94 16.21 71.2832 14.614 72.4272C14.158 70.5968 12.79 68.9952 11.536 67.3936C8.45796 63.6184 5.60796 59.9576 11.08 52.1784ZM41.404 26.4384C40.72 27.5824 39.694 29.6416 38.554 32.1584C37.756 31.1288 36.844 30.0992 35.02 29.4128C32.512 28.4976 30.688 29.0696 29.206 29.5272C27.838 29.9848 26.584 30.328 24.874 29.6416C23.62 29.184 22.936 28.4976 22.366 27.6968C23.392 24.2648 24.076 21.5192 24.418 20.032L41.404 26.4384Z" fill="#BF2123"/>
<path d="M24.76 63.8472L18.832 53.208C18.604 52.7504 18.148 52.636 17.578 52.7504C17.122 52.8648 16.552 53.0936 16.096 53.3224C14.386 54.2376 13.246 55.8392 12.676 57.6696C12.22 59.5 12.448 61.4448 13.36 63.1608C14.272 64.8768 15.868 66.0208 17.692 66.5928C18.376 66.8216 18.946 66.8216 19.63 66.8216C20.884 66.8216 22.138 66.4784 23.164 65.9064C23.62 65.6776 23.962 65.3344 24.304 65.1056C24.874 64.7624 24.988 64.1904 24.76 63.8472ZM22.48 64.076C22.366 64.076 22.366 64.1904 22.252 64.1904C21.112 64.8768 19.63 65.1056 18.376 64.648C17.008 64.3048 15.982 63.3896 15.298 62.2456C14.614 61.1016 14.386 59.6144 14.842 58.356C15.184 56.9832 16.096 55.9536 17.236 55.2672C17.35 55.2672 17.464 55.1528 17.464 55.1528L22.48 64.076Z" fill="#BF2123"/>
<path d="M18.148 61.3304L17.692 61.5592C17.578 61.6736 17.35 61.6736 17.236 61.6736C16.894 61.6736 16.666 61.5592 16.438 61.216C16.21 60.7584 16.324 60.1864 16.78 59.9576L17.236 59.7288C17.692 59.5 18.262 59.6144 18.49 60.072C18.718 60.5296 18.604 61.1016 18.148 61.3304Z" fill="#BF2123"/>
<path d="M19.402 63.8473H19.288C18.832 63.7329 18.49 63.2753 18.49 62.8177L18.604 62.0169C18.718 61.5593 19.174 61.2161 19.63 61.2161C20.086 61.3305 20.428 61.7881 20.428 62.2457L20.2 63.0465C20.2 63.5041 19.744 63.8473 19.402 63.8473Z" fill="#BF2123"/>
<path d="M17.236 59.2713C17.122 59.2713 17.008 59.2713 16.894 59.1569L16.21 58.9281C15.754 58.6993 15.526 58.2417 15.754 57.7841C15.982 57.3265 16.438 57.0977 16.894 57.3265L17.578 57.5553C18.034 57.7841 18.262 58.2417 18.034 58.6993C17.92 59.0425 17.578 59.2713 17.236 59.2713Z" fill="#BF2123"/>
<path d="M23.62 54.352C25.444 54.352 27.154 53.6656 28.522 52.4072C29.89 51.1488 30.802 49.3184 30.802 47.3736C30.916 43.3696 27.838 40.052 23.848 39.8232C23.392 39.8232 22.822 39.8232 22.366 39.9376C21.91 40.052 21.568 40.3952 21.454 40.8528L20.884 52.9792C20.884 53.4368 21.226 53.8944 21.682 54.0088C22.138 54.1232 22.708 54.2376 23.278 54.2376C23.506 54.352 23.62 54.352 23.62 54.352ZM27.154 50.92C26.128 51.8352 24.874 52.2928 23.506 52.2928C23.392 52.2928 23.278 52.2928 23.164 52.2928L23.62 41.9968C23.734 41.9968 23.734 41.9968 23.848 41.9968C26.698 42.1112 28.864 44.5136 28.75 47.3736C28.75 48.7464 28.18 50.0048 27.154 50.92Z" fill="#BF2123"/>
<path d="M25.786 48.4032C25.33 48.4032 24.874 47.9456 24.874 47.488C24.874 47.0304 25.33 46.5728 25.786 46.5728H26.356C26.812 46.5728 27.268 47.0304 27.268 47.488C27.268 47.9456 26.812 48.4032 26.356 48.4032H25.786Z" fill="#BF2123"/>
<path d="M25.9001 45.772C25.6721 46.0008 25.4441 46.1152 25.2161 46.1152C24.9881 46.1152 24.7601 46.0008 24.6461 45.8864C24.3041 45.5432 24.1901 44.9712 24.5321 44.628L24.9881 44.056C25.3301 43.7128 25.9001 43.5984 26.2421 43.9416C26.5841 44.2848 26.6981 44.8568 26.3561 45.2L25.9001 45.772Z" fill="#BF2123"/>
<path d="M25.7859 49.0896L26.2419 49.6616C26.5839 50.1192 26.4699 50.6912 26.0139 50.92C25.8999 51.0344 25.6719 51.0344 25.4439 51.0344C25.1019 51.0344 24.8739 50.92 24.6459 50.6912L24.1899 50.1192C23.8479 49.6616 23.9619 49.0896 24.4179 48.8608C24.9879 48.5176 25.5579 48.632 25.7859 49.0896Z" fill="#BF2123"/>
</svg>
