<svg width="52" height="49" viewBox="0 0 52 49" fill="none" xmlns="http://www.w3.org/2000/svg">
<path d="M16.398 35.5625C20.9971 36.7289 25.0388 37.7543 32.2927 42.4685L32.3231 42.487C34.964 44.0569 37.644 44.4702 40.1568 44.1026C43.0719 43.676 45.7452 42.1956 47.8665 40.2541C48.5011 39.6726 49.0572 39.0248 49.538 38.3246L49.4732 38.5386L49.4435 38.63C49.1912 39.4686 48.861 40.2263 48.4344 40.9212C48.0118 41.6087 47.4847 42.2453 46.8329 42.8414C44.9402 44.5742 42.57 45.8943 40.0116 46.2692C37.856 46.5838 35.5505 46.2262 33.2714 44.8729C25.7962 40.0197 21.635 38.9638 16.9005 37.7636C13.7814 36.9727 10.4041 36.1169 5.62603 34.0205C4.40031 33.3528 3.36809 32.4904 2.66805 31.4604C2.23549 30.8232 1.92774 30.1157 1.78046 29.3441C2.58286 30.2707 3.60319 31.0543 4.76089 31.6816C8.43079 33.4071 12.4751 34.5696 16.398 35.5625ZM32.924 1.5274C33.3031 1.26245 33.3956 0.738504 33.1314 0.35896C32.8672 -0.0212462 32.3449 -0.113979 31.9665 0.150973C31.4533 0.510645 30.9752 1.04187 30.711 1.61417C30.4468 2.14871 30.3042 2.73889 30.3042 3.34232C30.3042 3.97291 30.4607 4.58892 30.7467 5.14069C31.0267 5.68649 31.4434 6.16737 31.9665 6.53433C32.3079 6.77412 32.4855 7.02317 32.6856 7.37953C32.8283 7.67297 32.9049 8.00482 32.9049 8.34926C32.9049 8.71555 32.8184 9.06662 32.6592 9.37263C32.4928 9.6866 32.2577 9.96017 31.9665 10.1648C31.588 10.4298 31.4949 10.9537 31.7591 11.3333C32.0232 11.7128 32.5456 11.8062 32.924 11.5413C33.4471 11.1743 33.8631 10.6941 34.1458 10.1489C34.4298 9.59586 34.5856 8.97984 34.5856 8.34926C34.5856 7.74517 34.443 7.15432 34.1782 6.62111C33.918 6.05212 33.4332 5.51493 32.924 5.15791C32.6328 4.95323 32.3964 4.67901 32.2346 4.3657C32.0715 4.05968 31.9849 3.70862 31.9849 3.34232C31.9849 3.00451 32.0662 2.61437 32.2346 2.31894C32.3964 2.0063 32.6328 1.73141 32.924 1.5274ZM19.943 1.5274C20.3215 1.26245 20.4139 0.738504 20.1504 0.35896C19.8862 -0.0212462 19.3632 -0.113979 18.9848 0.150973C18.4631 0.517269 18.0457 0.997495 17.763 1.54263C17.4804 2.15467 17.3232 2.65808 17.3232 3.34232C17.3232 3.97291 17.4791 4.58892 17.7657 5.14069C18.0457 5.68649 18.4624 6.16737 18.9848 6.53433C19.276 6.73835 19.5125 7.01324 19.6743 7.32654C19.8433 7.62726 19.9239 8.00614 19.9239 8.34926C19.9239 8.71555 19.8374 9.06662 19.6776 9.37263C19.5118 9.6866 19.276 9.96017 18.9848 10.1648C18.6064 10.4298 18.5139 10.9537 18.7781 11.3333C19.0416 11.7128 19.5646 11.8062 19.943 11.5413C20.4654 11.1743 20.8821 10.6941 21.1641 10.1489C21.4481 9.59586 21.6046 8.97984 21.6046 8.34926C21.6046 7.65773 21.4468 7.16889 21.1641 6.55023C20.8821 6.00509 20.4654 5.52487 19.943 5.15791C19.6518 4.95323 19.4154 4.67901 19.2529 4.3657C19.0905 4.05968 19.0033 3.70862 19.0033 3.34232C19.0033 3.00451 19.0852 2.61437 19.2529 2.31894C19.4154 2.0063 19.6511 1.73141 19.943 1.5274ZM26.4335 1.5274C26.812 1.26245 26.9051 0.738504 26.6409 0.35896C26.3767 -0.0212462 25.8544 -0.113979 25.4759 0.150973C24.9628 0.510645 24.4847 1.04187 24.2205 1.61417C23.9563 2.14871 23.8137 2.73889 23.8137 3.34232C23.8137 3.97291 23.9696 4.58892 24.2562 5.14069C24.5362 5.68649 24.9529 6.16737 25.4759 6.53433C25.7665 6.73835 26.003 7.01324 26.1648 7.32654C26.3338 7.62726 26.4144 8.00614 26.4144 8.34926C26.4144 8.71555 26.3279 9.06662 26.1681 9.37263C26.003 9.68594 25.7665 9.96017 25.4759 10.1648C25.0969 10.4298 25.0044 10.9537 25.2686 11.3333C25.5327 11.7128 26.0551 11.8062 26.4335 11.5413C26.9566 11.1743 27.3726 10.6941 27.6553 10.1489C27.9386 9.59586 28.0951 8.97984 28.0951 8.34926C28.0951 7.74517 27.9518 7.15432 27.6877 6.62111C27.4275 6.05212 26.9427 5.51493 26.4335 5.15791C26.1416 4.95323 25.9059 4.67901 25.7434 4.3657C25.581 4.05968 25.4944 3.70862 25.4944 3.34232C25.4944 2.99722 25.5717 2.66537 25.7137 2.37127C25.9171 2.01359 26.0895 1.76784 26.4335 1.5274ZM43.377 24.6114C43.8155 24.7597 44.2923 24.5239 44.4409 24.0841C44.5888 23.6443 44.3544 23.166 43.9152 23.017L42.352 22.4825L43.7032 20.135C43.9324 19.7336 43.795 19.2196 43.3948 18.9897C42.9946 18.7592 42.4821 18.8977 42.253 19.2991L40.7373 21.9307L36.977 20.6444L38.346 18.2664C38.5771 17.865 38.4411 17.3497 38.0409 17.1179C37.6407 16.8854 37.1269 17.0218 36.8957 17.4232L35.359 20.0919L31.5986 18.8056L32.2544 17.667C32.4855 17.2656 32.3495 16.7509 31.9493 16.5184C31.5491 16.2859 31.0353 16.423 30.8035 16.8244L29.9813 18.2532L28.1605 17.6305C27.722 17.4822 27.2445 17.7173 27.0966 18.1578C26.9487 18.5976 27.1831 19.0758 27.6223 19.2249L29.126 19.7389L27.0074 23.4191L23.2457 22.1334L25.7031 17.865C25.933 17.4636 25.7949 16.9496 25.3947 16.7191C24.9945 16.4893 24.4827 16.627 24.2529 17.0284L21.6324 21.5816L17.8707 20.296L18.7563 18.7572C18.9874 18.3558 18.8514 17.8412 18.4512 17.6087C18.051 17.3762 17.5372 17.5133 17.306 17.9147L16.254 19.7429L14.5462 19.1586C14.1077 19.0103 13.6302 19.2461 13.4823 19.6859C13.3337 20.1257 13.5688 20.604 14.0073 20.753L15.3981 21.2286L13.2676 24.9306L9.50593 23.6443L11.4297 20.3019C11.6615 19.8998 11.5248 19.3852 11.1246 19.1527C10.7244 18.9209 10.2112 19.0573 9.97945 19.4587L7.88859 23.0912L5.72905 22.3526C5.29054 22.2043 4.81372 22.4401 4.66513 22.8799C4.5172 23.3197 4.75165 23.798 5.19082 23.947L7.03336 24.5769L5.48206 27.2708C5.25091 27.6722 5.38696 28.1876 5.78717 28.4194C6.18737 28.6519 6.70117 28.5154 6.93232 28.1134L8.65004 25.13L12.4124 26.4163L10.7204 29.3547C10.4886 29.7561 10.6253 30.2714 11.0255 30.5032C11.4257 30.7357 11.9395 30.5986 12.1707 30.1972L14.0291 26.9688L17.7908 28.2551L16.2342 30.9596C16.0044 31.3617 16.1417 31.875 16.5419 32.1055C16.9428 32.3354 17.4546 32.1976 17.6844 31.7962L19.4048 28.8062L23.1665 30.0926L21.7638 32.5288C21.532 32.9302 21.6687 33.4449 22.0689 33.6774C22.4691 33.9099 22.9829 33.7727 23.214 33.3713L24.7838 30.6456L28.5442 31.9313L26.985 34.6398C26.7532 35.0412 26.8892 35.5559 27.2901 35.7884C27.6903 36.0209 28.2034 35.8837 28.4352 35.4823L30.1616 32.4844L33.9232 33.7701L31.8832 37.3152C31.6534 37.7166 31.7908 38.2306 32.191 38.4611C32.5919 38.6909 33.1037 38.5531 33.3335 38.1517L35.5373 34.3225L39.299 35.6089L37.0113 39.5825C36.7795 39.9839 36.9162 40.4986 37.3164 40.731C37.7166 40.9635 38.2298 40.8264 38.4616 40.425L40.9163 36.1613L43.1696 36.9316C43.6081 37.0807 44.0856 36.8449 44.2335 36.405C44.3821 35.9652 44.147 35.4863 43.7085 35.3379L41.7709 34.6756L43.902 30.9742L46.5324 31.873C46.9709 32.0214 47.4478 31.7863 47.5964 31.3464C47.7443 30.906 47.5092 30.4277 47.0707 30.2794L44.7579 29.4878L47.527 24.6769C47.7588 24.2755 47.6228 23.7602 47.2226 23.5284C46.8217 23.2959 46.3086 23.4323 46.0768 23.8337L43.1406 28.9354L39.3782 27.649L41.4968 23.9682L43.377 24.6114ZM30.7427 20.2913L34.5044 21.5777L32.3851 25.2578L28.6241 23.9722L30.7427 20.2913ZM36.1211 22.1307L39.8828 23.4164L37.7642 27.0973L34.0025 25.8109L36.1211 22.1307ZM40.1542 34.1225L36.3925 32.8368L38.523 29.1348L42.2853 30.4211L40.1542 34.1225ZM34.7785 32.2844L31.0161 30.9987L33.1473 27.2967L36.9096 28.583L34.7785 32.2844ZM29.3994 30.4456L25.6384 29.1593L27.7695 25.4579L31.5306 26.7442L29.3994 30.4456ZM24.0211 28.6068L20.26 27.3205L22.3912 23.6191L26.1522 24.9048L24.0211 28.6068ZM18.646 26.7694L14.885 25.4831L17.0154 21.7817L20.7765 23.0674L18.646 26.7694ZM51.4855 25.1618C50.8693 22.556 49.5697 20.2171 47.7813 18.3492C45.9949 16.4833 43.7184 15.0863 41.1461 14.3617C35.9593 12.9747 30.1748 12.8766 24.8479 13.2913C18.1461 13.8119 11.151 15.2546 4.91543 17.1477C3.43809 17.7054 2.14897 18.7374 1.26138 20.0442C0.688149 20.8881 0.278695 21.8439 0.0680242 22.8607L1.18511e-07 25.6294V28.281C1.18511e-07 29.8296 0.471536 31.214 1.28318 32.4082C2.11595 33.6336 3.60187 34.9253 4.94118 35.5545C9.86321 37.7152 13.3092 38.5896 16.4931 39.3957C21.0922 40.5615 25.1345 41.5868 32.3885 46.3017L32.4188 46.3202C35.0591 47.8894 37.7391 48.3027 40.2519 47.9351C43.1676 47.5079 45.8423 46.0274 47.9622 44.086C48.7283 43.3859 49.3524 42.6301 49.8596 41.8041C50.4097 40.9086 50.7643 40.0269 51.0741 39.0274C51.6176 37.2383 51.8877 36.3275 51.9848 33.3395C51.9881 30.5754 52.1287 27.8829 51.4855 25.1618ZM1.68074 25.4837V23.3701C1.8333 22.5083 2.1668 21.6989 2.64626 20.9915C3.31592 20.0072 4.27285 19.2149 5.42394 18.7526C11.5506 16.8953 18.4109 15.4804 24.9721 14.9704C30.674 14.5266 36.1462 14.7637 40.703 15.9839C42.9781 16.6264 44.9924 17.863 46.5734 19.5143C48.1537 21.1663 49.3042 23.2389 49.851 25.5506C50.4381 28.0286 50.4982 30.7927 49.9071 33.2932C49.3874 35.5002 48.3598 37.5238 46.7378 39.0089C44.8444 40.7423 42.4736 42.0631 39.9165 42.4373C37.7609 42.752 35.4554 42.3943 33.1757 41.0397C25.7018 36.1865 21.5392 35.1306 16.8054 33.9304C13.685 33.1402 10.309 32.2837 5.53093 30.1873C4.30521 29.5189 3.27365 28.6572 2.57362 27.6272C2.13577 26.982 1.82669 26.266 1.68074 25.4837Z" fill="#BF2123"/>
</svg>
