<svg width="279" height="258" viewBox="0 0 279 258" fill="none" xmlns="http://www.w3.org/2000/svg">
<g clip-path="url(#clip0_211_8)">
<path d="M140.809 258C64.4882 258 2.61795 253.862 2.61795 248.759C2.61795 243.655 64.4882 239.517 140.809 239.517C217.13 239.517 279 243.655 279 248.759C279 253.862 217.13 258 140.809 258Z" fill="#3F3D56"/>
<path d="M138.493 147.872H143.125V150.568H138.493V147.872Z" fill="#3F3D56"/>
<path d="M129.229 147.872H133.861V150.568H129.229V147.872Z" fill="#3F3D56"/>
<path d="M119.965 147.872H124.597V150.568H119.965V147.872Z" fill="#3F3D56"/>
<path d="M110.7 147.872H115.332V150.568H110.7V147.872Z" fill="#3F3D56"/>
<path d="M101.436 147.872H106.068V150.568H101.436V147.872Z" fill="#3F3D56"/>
<path d="M92.172 147.872H96.8041V150.568H92.172V147.872Z" fill="#3F3D56"/>
<path d="M82.9077 147.872H87.5398V150.568H82.9077V147.872Z" fill="#3F3D56"/>
<path d="M73.6435 147.872H78.2756V150.568H73.6435V147.872Z" fill="#3F3D56"/>
<path d="M64.3794 147.872H69.0115V150.568H64.3794V147.872Z" fill="#3F3D56"/>
<path d="M55.1151 147.872H59.7472V150.568H55.1151V147.872Z" fill="#3F3D56"/>
<path d="M45.8509 147.872H50.483V150.568H45.8509V147.872Z" fill="#3F3D56"/>
<path d="M35.2357 149.605C35.2357 164.311 41.092 178.415 51.5162 188.813C61.9405 199.212 76.0788 205.054 90.8209 205.054C105.563 205.054 119.701 199.212 130.126 188.813C140.55 178.415 146.406 164.311 146.406 149.605H35.2357Z" fill="#3F3D56"/>
<path d="M37.9224 149.96L73.2808 44.8224C66.3606 42.5014 59.0497 41.5639 51.7661 42.0637C44.4825 42.5635 37.3691 44.4908 30.8327 47.7352C24.2964 50.9796 18.4653 55.4776 13.673 60.9718C8.88068 66.4661 5.22117 72.8489 2.90371 79.7552C2.52928 80.868 2.18959 81.9885 1.8885 83.109C-1.75106 96.7336 -0.0509788 111.229 6.6429 123.648C13.3368 136.067 24.5217 145.475 37.9224 149.96Z" fill="#3F3D56"/>
<path d="M36.5868 158.269C32.7494 158.269 29.6386 155.166 29.6386 151.338C29.6386 147.51 32.7494 144.407 36.5868 144.407C40.4241 144.407 43.5349 147.51 43.5349 151.338C43.5349 155.166 40.4241 158.269 36.5868 158.269Z" fill="#3F3D56"/>
<path d="M107.226 164.045C107.738 164.045 108.229 164.248 108.591 164.609C108.953 164.97 109.156 165.46 109.156 165.97C109.156 166.481 108.953 166.971 108.591 167.332C108.229 167.693 107.738 167.896 107.226 167.896H74.0294C73.5175 167.896 73.0266 167.693 72.6646 167.332C72.3027 166.971 72.0993 166.481 72.0993 165.97C72.0993 165.46 72.3027 164.97 72.6646 164.609C73.0266 164.248 73.5175 164.045 74.0294 164.045H107.226Z" fill="#D9292B"/>
<path d="M44.6928 249.914L51.6047 250.169L76.5061 196.747L70.2057 193.825L44.6928 249.914Z" fill="#3F3D56"/>
<path d="M136.949 249.914L130.037 250.169L105.136 196.747L111.436 193.825L136.949 249.914Z" fill="#3F3D56"/>
<path d="M62.0633 219.109H119.193V222.959H62.0633V219.109Z" fill="#3F3D56"/>
<path d="M71.8675 42.8595C72.1389 42.8596 72.4066 42.9232 72.649 43.0451C72.8913 43.1671 73.1017 43.3439 73.2632 43.5616C73.4247 43.7793 73.5328 44.0316 73.5788 44.2985C73.6249 44.5653 73.6076 44.8392 73.5284 45.0982L72.0639 49.8861C71.9291 50.3253 71.625 50.6931 71.2185 50.9088C70.812 51.1245 70.3363 51.1703 69.8959 51.0363C69.4555 50.9023 69.0864 50.5994 68.8698 50.194C68.6532 49.7887 68.6067 49.3142 68.7406 48.8748L70.2051 44.0869C70.3142 43.7319 70.5346 43.4211 70.8338 43.2002C71.133 42.9793 71.4953 42.8599 71.8675 42.8595Z" fill="#D9292B"/>
<path d="M148.722 150.568C149.183 150.568 149.625 150.751 149.95 151.076C150.276 151.4 150.459 151.841 150.459 152.301C150.459 152.76 150.276 153.201 149.95 153.526C149.625 153.851 149.183 154.034 148.722 154.034H143.704C143.243 154.034 142.802 153.851 142.476 153.526C142.15 153.201 141.967 152.76 141.967 152.301C141.967 151.841 142.15 151.4 142.476 151.076C142.802 150.751 143.243 150.568 143.704 150.568H148.722Z" fill="#D9292B"/>
<path d="M107.226 137.861H128.071C128.202 137.861 128.329 137.865 128.457 137.876C129.819 137.973 131.093 138.581 132.024 139.577C132.955 140.573 133.473 141.884 133.475 143.246C133.476 144.608 132.961 145.92 132.032 146.919C131.103 147.917 129.83 148.527 128.468 148.627C128.337 148.639 128.206 148.643 128.071 148.643H107.226C105.793 148.643 104.418 148.075 103.405 147.064C102.392 146.053 101.822 144.681 101.822 143.252C101.822 141.822 102.392 140.451 103.405 139.44C104.418 138.429 105.793 137.861 107.226 137.861Z" fill="#FF6584"/>
<path opacity="0.2" d="M130.171 148.215C126.619 147.761 123.825 143.29 123.825 137.861H124.597C124.597 143.171 127.368 147.487 130.773 147.487V147.919L130.171 148.215Z" fill="black"/>
<path opacity="0.2" d="M122.667 148.257V147.487C119.261 147.487 116.49 143.169 116.49 137.861H115.718C115.718 143.594 118.835 148.257 122.667 148.257Z" fill="black"/>
<path opacity="0.2" d="M114.56 148.257V147.487C111.155 147.487 108.384 143.169 108.384 137.861H107.612C107.612 143.594 110.729 148.257 114.56 148.257Z" fill="black"/>
<path d="M69.3974 137.861H90.2419C90.3731 137.861 90.5005 137.865 90.6279 137.876C91.9897 137.973 93.2643 138.581 94.1952 139.577C95.1262 140.573 95.6445 141.884 95.646 143.246C95.6475 144.608 95.132 145.92 94.2031 146.919C93.2743 147.917 92.0011 148.527 90.6395 148.627C90.5082 148.639 90.3769 148.643 90.2419 148.643H69.3974C67.9641 148.643 66.5896 148.075 65.5761 147.064C64.5626 146.053 63.9933 144.681 63.9933 143.252C63.9933 141.822 64.5626 140.451 65.5761 139.44C66.5896 138.429 67.9641 137.861 69.3974 137.861Z" fill="#FF6584"/>
<path opacity="0.2" d="M92.3418 148.215C88.7905 147.761 85.9958 143.29 85.9958 137.861H86.7678C86.7678 143.171 89.5394 147.487 92.944 147.487V147.919L92.3418 148.215Z" fill="black"/>
<path opacity="0.2" d="M84.8378 148.257V147.487C81.4323 147.487 78.6616 143.169 78.6616 137.861H77.8896C77.8896 143.594 81.0065 148.257 84.8378 148.257Z" fill="black"/>
<path opacity="0.2" d="M76.7316 148.257V147.487C73.3261 147.487 70.5554 143.169 70.5554 137.861H69.7834C69.7834 143.594 72.9003 148.257 76.7316 148.257Z" fill="black"/>
<path d="M108.752 86.092C111.483 84.6197 114.861 86.2253 116.222 88.8313C117.878 92.0011 116.505 95.8118 114.575 98.5211C112.568 101.336 109.845 103.66 108.506 106.914C107.224 109.976 107.072 113.391 108.077 116.554C109.081 119.717 111.177 122.423 113.992 124.19C115.248 124.983 114.088 126.983 112.823 126.185C110.062 124.465 107.878 121.963 106.549 118.998C105.221 116.034 104.808 112.742 105.363 109.542C105.645 107.883 106.183 106.277 106.957 104.782C107.796 103.256 108.807 101.83 109.971 100.533C111.98 98.1609 114.509 95.5457 114.636 92.2453C114.659 91.8172 114.629 91.3878 114.546 90.967C114.486 90.673 114.397 90.3858 114.279 90.1096C113.998 89.5166 113.581 88.9978 113.062 88.5952C112.581 88.2124 112.012 87.9552 111.406 87.8471C110.898 87.7719 110.379 87.8557 109.921 88.0869C108.609 88.7937 107.438 86.7997 108.752 86.092Z" fill="#E6E6E6"/>
<path d="M73.9016 100.067C75.0648 99.6944 76.3076 99.6432 77.4977 99.9191C78.6878 100.195 79.7806 100.788 80.6597 101.634C81.1141 102.1 81.4507 102.668 81.6416 103.289C81.8325 103.911 81.8722 104.569 81.7574 105.209C81.5367 106.609 80.6506 107.853 79.6892 108.855C77.8082 110.816 75.1755 112.083 73.5984 114.335C72.8989 115.294 72.46 116.417 72.3244 117.595C72.2433 118.654 72.4379 119.716 72.8893 120.677C74.066 123.063 76.4017 124.686 78.8651 125.731C79.4408 125.975 79.5677 126.821 79.2806 127.311C79.1201 127.57 78.8662 127.757 78.5713 127.834C78.2764 127.911 77.9632 127.872 77.6962 127.725C73.163 125.803 68.9688 121.497 70.2191 116.207C70.8769 113.425 72.8927 111.461 75.0636 109.754C76.1417 108.965 77.1599 108.098 78.11 107.16C78.8606 106.365 79.6405 105.279 79.5027 104.201C79.4474 103.826 79.2635 103.482 78.9824 103.227C78.6414 102.917 78.2544 102.66 77.835 102.467C77.3208 102.221 76.7628 102.079 76.1934 102.05C75.6239 102.02 75.0542 102.104 74.5172 102.295C74.2212 102.374 73.906 102.333 73.6396 102.182C73.3732 102.031 73.1768 101.782 73.0927 101.488C73.0174 101.193 73.0595 100.88 73.2103 100.615C73.3611 100.35 73.6088 100.154 73.9016 100.067Z" fill="#E6E6E6"/>
<path d="M91.5329 67.2025C92.2231 66.6144 93.0942 66.2798 94.0015 66.2543C94.8621 66.2704 95.6986 66.5402 96.4056 67.0297C98.0027 68.187 99.1324 69.8755 99.5911 71.7907C100.761 76.2625 99.2349 81.0825 97.1139 85.0209C96.0416 87.0119 94.7927 88.9017 93.7133 90.8887C92.6726 92.7891 91.8736 94.8116 91.3348 96.9093C90.236 101.211 90.1379 105.706 91.0481 110.051C91.975 114.375 93.9248 118.658 97.2419 121.642C97.459 121.858 97.581 122.152 97.581 122.458C97.581 122.765 97.459 123.059 97.2419 123.275C97.0247 123.492 96.7301 123.614 96.423 123.614C96.1159 123.614 95.8213 123.492 95.6041 123.275C92.66 120.627 90.6911 116.994 89.5025 113.258C88.1912 109.039 87.8077 104.587 88.3781 100.207C88.636 98.0252 89.1339 95.8787 89.8628 93.806C90.6527 91.7181 91.6391 89.7095 92.8088 87.8071C94.9857 84.1356 97.303 80.4222 97.6181 76.0506C97.773 73.9008 97.5034 71.66 96.1703 69.9312C96.2433 70.0258 96.1118 69.8624 96.1112 69.8617C96.0304 69.7651 95.9466 69.6712 95.8598 69.5798C95.6944 69.4027 95.5166 69.2375 95.3277 69.0856C95.3679 69.1174 95.4704 69.1856 95.2838 69.0566C95.191 68.9924 95.0963 68.9309 94.999 68.8738C94.9198 68.8273 94.8384 68.7862 94.7573 68.7433C94.7092 68.7188 94.6604 68.6957 94.6109 68.674C94.7236 68.7225 94.7173 68.7229 94.5919 68.6754C94.5013 68.6471 94.0527 68.5504 94.3017 68.5818C94.2186 68.5719 94.1351 68.5665 94.0515 68.5656C94.0161 68.5649 93.7037 68.5809 93.8563 68.5642C94.0347 68.5447 93.7152 68.5959 93.7129 68.5964C93.6129 68.6208 93.5147 68.6518 93.4189 68.6893C93.6598 68.5933 93.0237 68.9501 93.1706 68.8362C92.9488 69.0439 92.656 69.1596 92.3517 69.1596C92.0475 69.1596 91.7547 69.0439 91.5329 68.8362C91.1333 68.4376 91.0363 67.5876 91.5329 67.2025Z" fill="#E6E6E6"/>
<path d="M180.457 240.818L189.187 243.128L205.223 169.188L187.227 167.588L180.457 240.818Z" fill="#FFB9B9"/>
<path d="M220.402 241.954L229.334 243.3L237.183 168.056L219.12 168.425L220.402 241.954Z" fill="#FFB9B9"/>
<path d="M225.001 134.884L224.176 150.241C224.146 150.806 224.238 151.371 224.446 151.897C224.653 152.423 224.972 152.899 225.381 153.291C225.789 153.684 226.277 153.984 226.812 154.172C227.347 154.359 227.916 154.43 228.481 154.379C229.404 154.295 230.268 153.89 230.922 153.236C231.577 152.581 231.979 151.717 232.06 150.796L233.553 133.818L245.313 94.0038L244.957 68.4092L231.059 69.1201L225.001 134.884Z" fill="#FFB9B9"/>
<path d="M217.517 172.565C224.479 170.154 232.556 169.68 241.75 171.143C240.446 155.737 239.691 141.431 240.324 129.907H192.929L217.517 172.565Z" fill="#2F2E41"/>
<path d="M184.376 172.21C191.552 175.996 201.931 177.809 213.954 178.608L228.921 130.974L192.216 130.263L184.376 172.21Z" fill="#2F2E41"/>
<path d="M165.901 248.547L191.721 249.501C195.028 249.623 195.203 246.79 194.578 243.548L191.521 234.84C184.639 241.566 183.991 241.942 181.04 232.374L172.036 239.469L165.371 240.609C164.438 240.768 163.591 241.252 162.982 241.975C162.372 242.698 162.038 243.612 162.04 244.557C162.041 245.591 162.444 246.584 163.164 247.328C163.884 248.072 164.865 248.509 165.901 248.547Z" fill="#2F2E41"/>
<path d="M205.007 248.547L230.827 249.501C234.134 249.623 234.309 246.79 233.684 243.548L230.627 234.84C223.745 241.566 223.097 241.942 220.147 232.374L211.143 239.469L204.478 240.609C203.544 240.768 202.698 241.252 202.088 241.975C201.478 242.698 201.144 243.612 201.146 244.557C201.147 245.591 201.55 246.584 202.27 247.328C202.99 248.072 203.971 248.509 205.007 248.547Z" fill="#2F2E41"/>
<path d="M198.987 30.7281C191.311 30.7281 185.089 24.5211 185.089 16.8644C185.089 9.20763 191.311 3.00061 198.987 3.00061C206.663 3.00061 212.885 9.20763 212.885 16.8644C212.885 24.5211 206.663 30.7281 198.987 30.7281Z" fill="#FFB9B9"/>
<path d="M206.114 41.3925L222.507 36.416L211.459 20.0636L198.987 25.3959L206.114 41.3925Z" fill="#FFB9B9"/>
<path d="M190.791 134.173C207.642 137.953 226.348 136.453 242.462 132.04C238.604 110.575 240.467 87.5184 244.244 68.7647C247.201 54.0858 239.401 41.7682 226.426 35.7049C223.638 34.7073 220.736 34.0556 217.788 33.7645C208.687 32.9601 200.678 39.7677 199.729 48.8329L190.791 134.173Z" fill="#D9292B"/>
<path d="M234.623 75.8744L246.382 74.4524L242.819 55.9675H234.623V75.8744Z" fill="#D9292B"/>
<path d="M199.181 19.0596L201.31 18.1157C201.793 17.9025 202.316 17.7964 202.844 17.8049C203.371 17.8134 203.891 17.9363 204.366 18.165C204.841 18.3937 205.261 18.7227 205.596 19.1293C205.931 19.5359 206.173 20.0103 206.306 20.5196L209.274 25.8675L216.664 24.7007L216.406 13.3796C216.069 11.2402 215.296 9.19253 214.134 7.36322C212.972 5.53391 211.447 3.96193 209.651 2.74457C207.856 1.52721 205.829 0.690374 203.696 0.285864C201.564 -0.118645 199.371 -0.0822232 197.253 0.392876L197.051 0.438397C193.443 1.25255 188.759 3.89491 186.314 6.66872L181.759 11.8368C181.543 12.082 181.398 12.3816 181.341 12.7029C181.284 13.0243 181.316 13.3552 181.434 13.6596C181.552 13.9641 181.751 14.2304 182.011 14.4297C182.27 14.629 182.579 14.7536 182.904 14.79L189.134 15.4758L199.181 19.0596Z" fill="#2F2E41"/>
<path d="M153.084 113.607L161.064 120.59C161.179 120.691 161.33 120.742 161.483 120.732C161.637 120.722 161.779 120.651 161.881 120.536C161.982 120.421 162.033 120.271 162.023 120.118C162.013 119.965 161.943 119.823 161.828 119.722L153.847 112.739L155.374 111.002L163.355 117.985C163.47 118.086 163.621 118.137 163.774 118.126C163.927 118.116 164.07 118.046 164.171 117.931C164.273 117.816 164.324 117.665 164.314 117.513C164.304 117.36 164.234 117.217 164.118 117.116L156.138 110.134L157.665 108.397L165.646 115.379C165.703 115.429 165.769 115.468 165.841 115.492C165.913 115.517 165.989 115.527 166.065 115.522C166.141 115.517 166.216 115.497 166.284 115.464C166.352 115.43 166.413 115.383 166.463 115.326C166.513 115.269 166.552 115.203 166.576 115.131C166.601 115.059 166.611 114.983 166.606 114.908C166.601 114.832 166.581 114.758 166.547 114.69C166.513 114.622 166.467 114.561 166.409 114.511L158.429 107.528L160.338 105.357L171.616 115.225C172.622 116.106 173.295 117.305 173.521 118.622C173.747 119.939 173.513 121.293 172.858 122.459L206.907 152.25L203.852 155.724L169.826 125.952C168.788 126.769 167.496 127.198 166.174 127.164C164.852 127.13 163.584 126.636 162.589 125.766L151.175 115.779L153.084 113.607Z" fill="#E6E6E6"/>
<path d="M191.86 134.884L191.035 150.241C191.005 150.806 191.097 151.371 191.305 151.897C191.512 152.423 191.831 152.899 192.24 153.291C192.648 153.684 193.136 153.984 193.671 154.172C194.206 154.359 194.775 154.43 195.34 154.379C196.263 154.295 197.127 153.89 197.781 153.236C198.436 152.581 198.838 151.717 198.919 150.796L200.412 133.818L212.172 94.0038L211.816 68.4092L197.918 69.1201L191.86 134.884Z" fill="#FFB9B9"/>
<path d="M196.849 73.0305C201.078 68.9841 206.659 68.8355 212.885 70.5421V51.4378C212.885 49.1508 211.974 46.9574 210.353 45.3403C208.732 43.7231 206.533 42.8146 204.24 42.8146C203.185 42.8146 202.141 43.025 201.168 43.4336C200.196 43.8421 199.315 44.4404 198.578 45.1934C197.84 45.9465 197.261 46.8389 196.875 47.8183C196.488 48.7978 196.302 49.8444 196.327 50.8967L196.849 73.0305Z" fill="#D9292B"/>
</g>
<defs>
<clipPath id="clip0_211_8">
<rect width="279" height="258" fill="white" transform="matrix(-1 0 0 1 279 0)"/>
</clipPath>
</defs>
</svg>
