<svg width="44" height="44" viewBox="0 0 44 44" fill="none" xmlns="http://www.w3.org/2000/svg">
<path d="M4.24219 17.3091H40.2305C40.4957 17.3091 40.75 17.2037 40.9376 17.0162C41.1251 16.8287 41.2305 16.5743 41.2305 16.3091C41.2305 16.0439 41.1251 15.7895 40.9376 15.602C40.75 15.4144 40.4957 15.3091 40.2305 15.3091H4.24219C3.97697 15.3091 3.72262 15.4144 3.53508 15.602C3.34754 15.7895 3.24219 16.0439 3.24219 16.3091C3.24219 16.5743 3.34754 16.8287 3.53508 17.0162C3.72262 17.2037 3.97697 17.3091 4.24219 17.3091Z" fill="#BF2123"/>
<path d="M42.8125 19.8115H1.1875C0.922284 19.8115 0.66793 19.9169 0.480393 20.1044C0.292857 20.292 0.1875 20.5463 0.1875 20.8115C0.1875 21.0767 0.292857 21.3311 0.480393 21.5186C0.66793 21.7062 0.922284 21.8115 1.1875 21.8115H4.0918V29.7749C4.09233 30.3016 4.30177 30.8065 4.67416 31.1789C5.04656 31.5513 5.55148 31.7607 6.07813 31.7612H12.4621L9.5127 42.2505C9.47665 42.3771 9.46594 42.5096 9.4812 42.6403C9.49646 42.7711 9.53738 42.8976 9.60162 43.0125C9.66585 43.1274 9.75214 43.2285 9.85554 43.3099C9.95893 43.3914 10.0774 43.4517 10.2041 43.4873C10.3309 43.5229 10.4634 43.5331 10.5941 43.5174C10.7248 43.5017 10.8511 43.4603 10.9658 43.3957C11.0805 43.331 11.1812 43.2444 11.2624 43.1407C11.3435 43.037 11.4033 42.9184 11.4385 42.7915L13.084 36.9395H31.459L33.1289 42.7955C33.2022 43.05 33.3734 43.2651 33.6051 43.3936C33.8367 43.522 34.1099 43.5534 34.3646 43.4807C34.6193 43.408 34.8348 43.2373 34.9638 43.006C35.0928 42.7746 35.1248 42.5016 35.0527 42.2467L32.0626 31.7612H38.4258C38.9524 31.7607 39.4573 31.5513 39.8297 31.1789C40.2021 30.8065 40.4116 30.3015 40.4121 29.7749V21.8115H42.8125C43.0777 21.8115 43.3321 21.7062 43.5196 21.5186C43.7071 21.3311 43.8125 21.0767 43.8125 20.8115C43.8125 20.5463 43.7071 20.292 43.5196 20.1044C43.3321 19.9169 43.0777 19.8115 42.8125 19.8115ZM30.8886 34.9395H13.6464L14.54 31.7612H29.9823L30.8886 34.9395ZM38.4121 29.7612L13.6871 29.7717C13.6751 29.7728 13.6629 29.7701 13.6509 29.7717L6.0918 29.7749V21.8115H38.4121V29.7612Z" fill="#BF2123"/>
<path d="M10.7764 6.92432C11.2254 7.21225 11.5934 7.61013 11.8455 8.08021C12.0976 8.55029 12.2254 9.07698 12.2168 9.61032C12.2018 10.0488 12.0279 10.4669 11.7275 10.7867C11.4271 11.1065 11.0207 11.3062 10.584 11.3486C10.3308 11.3784 10.0985 11.5037 9.93458 11.6991C9.77069 11.8944 9.68762 12.145 9.70234 12.3995C9.71705 12.6541 9.82845 12.8934 10.0138 13.0685C10.1991 13.2437 10.4443 13.3414 10.6992 13.3418C10.7384 13.3419 10.7775 13.3396 10.8164 13.335C11.727 13.2382 12.5721 12.8161 13.1964 12.1462C13.8207 11.4763 14.1824 10.6036 14.2149 9.68849C14.2372 8.83546 14.046 7.99038 13.6585 7.23012C13.271 6.46986 12.6995 5.81857 11.9961 5.33548C11.868 5.17393 11.7784 4.98532 11.7341 4.78396C11.6897 4.5826 11.6918 4.37379 11.7403 4.17337C11.9756 3.30276 13.208 2.57816 13.6221 2.3931C13.8646 2.28575 14.0546 2.08643 14.1502 1.83901C14.2458 1.59158 14.2392 1.31631 14.1318 1.07376C14.0245 0.831206 13.8252 0.641234 13.5777 0.545637C13.3303 0.450039 13.0551 0.456646 12.8125 0.564005C12.5615 0.674364 10.3428 1.70072 9.8125 3.64213C9.68218 4.15881 9.67344 4.69867 9.78697 5.21929C9.9005 5.73991 10.1332 6.22711 10.4668 6.64262C10.5488 6.75744 10.6544 6.85347 10.7764 6.92432Z" fill="#BF2123"/>
<path d="M17.7852 6.9209C18.2348 7.20946 18.6035 7.6078 18.8566 8.07834C19.1096 8.54888 19.2386 9.07613 19.2315 9.61035C19.2164 10.0488 19.0425 10.4669 18.7421 10.7867C18.4417 11.1065 18.0353 11.3062 17.5986 11.3486C17.3454 11.3784 17.1131 11.5037 16.9492 11.6991C16.7853 11.8944 16.7023 12.145 16.717 12.3995C16.7317 12.6541 16.8431 12.8934 17.0284 13.0685C17.2137 13.2437 17.4589 13.3414 17.7139 13.3418C17.753 13.3419 17.7922 13.3396 17.8311 13.335C18.7416 13.2382 19.5867 12.8161 20.2111 12.1462C20.8354 11.4763 21.197 10.6036 21.2295 9.68848C21.252 8.83543 21.0608 7.9903 20.6733 7.23002C20.2858 6.46974 19.7143 5.81846 19.0107 5.33548C18.8826 5.17393 18.793 4.98532 18.7487 4.78396C18.7043 4.5826 18.7065 4.37379 18.7549 4.17337C18.9902 3.30276 20.2227 2.57816 20.6367 2.3931C20.8786 2.28528 21.0678 2.08596 21.1629 1.83884C21.2579 1.59173 21.2512 1.31699 21.144 1.07487C21.0368 0.832743 20.838 0.642996 20.5912 0.54723C20.3443 0.451464 20.0696 0.457495 19.8272 0.564C19.5762 0.67436 17.3574 1.70072 16.8272 3.64213C16.6968 4.1588 16.6881 4.69866 16.8016 5.21928C16.9152 5.7399 17.1479 6.22711 17.4815 6.64262C17.563 6.75481 17.6663 6.84945 17.7852 6.9209Z" fill="#BF2123"/>
<path d="M24.7998 6.9209C25.2494 7.20946 25.6182 7.60779 25.8712 8.07834C26.1243 8.54888 26.2533 9.07613 26.2461 9.61035C26.2312 10.0487 26.0575 10.4668 25.7573 10.7866C25.4571 11.1064 25.0508 11.3061 24.6143 11.3486C24.361 11.3784 24.1287 11.5037 23.9648 11.6991C23.801 11.8944 23.7179 12.145 23.7326 12.3995C23.7473 12.6541 23.8587 12.8934 24.044 13.0685C24.2293 13.2437 24.4745 13.3414 24.7295 13.3418C24.7687 13.342 24.8078 13.3397 24.8467 13.335C25.7572 13.2381 26.6021 12.816 27.2262 12.1461C27.8504 11.4762 28.2118 10.6035 28.2441 9.68848C28.2666 8.83544 28.0754 7.99033 27.6879 7.23006C27.3003 6.4698 26.7289 5.81851 26.0254 5.33548C25.8973 5.17392 25.8078 4.98527 25.7636 4.78389C25.7194 4.58251 25.7218 4.3737 25.7705 4.17337C26.0049 3.30276 27.2383 2.57816 27.6514 2.3931C27.8932 2.28528 28.0824 2.08596 28.1775 1.83884C28.2726 1.59173 28.2658 1.31699 28.1586 1.07487C28.0515 0.832743 27.8527 0.642996 27.6058 0.54723C27.359 0.451464 27.0842 0.457495 26.8418 0.564C26.5908 0.67436 24.3731 1.70072 23.8418 3.64213C23.7115 4.1588 23.7027 4.69866 23.8163 5.21928C23.9298 5.7399 24.1625 6.22711 24.4961 6.64262C24.5776 6.7548 24.6809 6.84944 24.7998 6.9209Z" fill="#BF2123"/>
<path d="M31.8213 6.92433C32.2703 7.21225 32.6383 7.61013 32.8904 8.08021C33.1425 8.55029 33.2703 9.07699 33.2617 9.61033C33.2467 10.0488 33.0728 10.4669 32.7724 10.7867C32.472 11.1065 32.0656 11.3062 31.6289 11.3486C31.3757 11.3784 31.1434 11.5037 30.9795 11.6991C30.8156 11.8944 30.7325 12.1449 30.7472 12.3995C30.762 12.654 30.8734 12.8934 31.0587 13.0685C31.244 13.2437 31.4892 13.3414 31.7441 13.3418C31.7833 13.3419 31.8224 13.3396 31.8613 13.3349C32.7719 13.2382 33.617 12.8161 34.2413 12.1462C34.8656 11.4763 35.2273 10.6036 35.2598 9.68846C35.2821 8.83544 35.0909 7.99035 34.7034 7.2301C34.3159 6.46984 33.7444 5.81855 33.041 5.33546C32.9129 5.17391 32.8233 4.9853 32.779 4.78394C32.7346 4.58258 32.7367 4.37377 32.7852 4.17335C33.0205 3.30274 34.2529 2.57814 34.667 2.39308C34.908 2.28471 35.0963 2.08538 35.1908 1.83863C35.2853 1.59188 35.2783 1.31776 35.1714 1.07614C35.0644 0.834524 34.8662 0.645043 34.62 0.549086C34.3738 0.453129 34.0997 0.458495 33.8574 0.56401C33.6064 0.67437 31.3877 1.70073 30.8574 3.64214C30.7271 4.15881 30.7184 4.69867 30.8319 5.21929C30.9454 5.73991 31.1781 6.22712 31.5117 6.64263C31.5937 6.75745 31.6993 6.85348 31.8213 6.92433Z" fill="#BF2123"/>
</svg>
