<svg width="82" height="82" viewBox="0 0 82 82" fill="none" xmlns="http://www.w3.org/2000/svg">
<path d="M80.9977 62.2993C81.2316 60.7744 81.0133 59.5382 80.347 58.6215C80.0627 58.2303 79.7359 57.9537 79.4245 57.7583C79.9753 56.3023 80.4244 53.4329 78.121 49.3728C76.6692 46.8139 74.3532 45.5069 71.4331 45.593C70.3188 45.6258 69.3227 45.8597 68.6177 46.0792C67.9404 44.3807 66.2406 42.9615 64.129 42.4362C63.5804 42.2997 63.0349 42.228 62.4973 42.2161V38.3663C62.4973 37.8331 62.067 37.4006 61.5364 37.4006C61.0058 37.4006 60.5754 37.8331 60.5754 38.3663V42.4414C59.4622 42.7338 58.4191 43.3045 57.5017 44.1307V30.8745L60.5754 28.9516V30.9633C60.5754 31.4965 61.0058 31.9289 61.5364 31.9289C62.067 31.9289 62.4973 31.4965 62.4973 30.9633V27.213C62.4973 26.8623 62.308 26.5391 62.0029 26.3689C61.698 26.1984 61.3249 26.2079 61.0285 26.3932L58.1721 28.1801C59.1516 22.5067 56.0001 19.2763 54.4504 18.0653C52.6272 16.6407 50.392 15.8698 48.3278 15.822C49.1127 14.7006 49.6544 13.4533 49.9768 12.1541C50.4969 10.0857 50.4899 7.91497 50.1624 6.02749C50.098 5.56013 49.6484 5.18804 49.18 5.21492C48.7842 5.22683 41.7313 5.51378 39.9997 10.7338C39.0107 13.7153 39.4426 16.1498 39.9905 17.6847C39.5515 17.4333 39.0925 17.1523 38.6132 16.8343C36.8779 15.6834 34.4671 15.5074 32.1209 16.2163C31.521 15.5473 30.6273 14.9724 29.3725 14.4423C29.2673 14.3978 29.1635 14.3552 29.061 14.314C29.2802 14.0671 29.4647 13.8153 29.6142 13.5851C30.4273 13.8729 31.1184 13.7977 31.6036 13.6524C32.8024 13.2933 33.6154 12.2857 34.0601 11.5716C34.7111 11.6873 35.6417 11.7149 36.5336 11.2526C37.5139 10.7447 38.1718 9.79874 38.4891 8.44091C38.8778 6.77714 38.2141 5.22103 36.7136 4.27842C34.8889 3.13222 31.6906 2.9457 29.3571 4.85747C28.6385 5.44635 27.9809 6.20098 27.3896 7.02273C27.0869 5.77965 26.6889 4.72792 26.1985 3.88075C24.6846 1.26567 21.6259 0.308737 19.5165 0.735383C17.7817 1.08655 16.6151 2.30806 16.3958 4.0029C16.2169 5.38599 16.5012 6.50419 17.2407 7.32642C17.9135 8.07462 18.794 8.37831 19.4438 8.5003C19.6099 9.32607 20.0176 10.5568 21.0138 11.317C21.4171 11.6249 22.0373 11.9397 22.8993 11.958C22.9694 12.2757 23.0747 12.639 23.2307 13.0069C23.0008 12.9932 22.7614 12.9827 22.5122 12.9777C20.6358 12.9383 19.393 13.2723 18.5463 13.892C18.1446 13.4142 17.6763 13.1432 17.2509 13.0078C16.8215 11.7947 15.6662 10.2045 13.288 9.98961C12.5585 9.92395 11.9019 10.1433 11.3884 10.6242C10.984 11.0029 10.7169 11.506 10.5399 12.0166C9.9827 11.4912 9.36626 11.0508 8.68832 10.7568C7.26277 10.1386 5.77459 10.2164 4.26512 10.9873C2.70023 11.7866 1.7377 12.9742 1.40409 14.5169C0.71766 17.6908 3.03816 21.4334 4.04026 22.8617C3.59711 23.5898 3.02615 24.8652 3.22346 26.3896C3.25918 26.6655 3.3202 26.9358 3.4014 27.2017L2.10878 26.3928C1.81249 26.2074 1.43948 26.1983 1.13423 26.3684C0.82993 26.5388 0.640625 26.862 0.640625 27.2127V80.7482C0.640625 81.2814 1.07096 81.7138 1.60156 81.7138H64.8167C73.9113 81.7138 81.3123 74.288 81.3312 65.1532C81.4193 63.9829 81.3075 63.0291 80.9977 62.2993ZM57.2517 79.7396C50.7197 79.2526 45.4383 74.6648 44.1501 68.3473C44.2521 68.4513 44.3319 68.5762 44.3644 68.6434C44.5372 69.0276 44.9286 69.2936 45.346 69.2439C45.7563 69.194 46.0792 68.9252 46.1625 68.5211C46.2179 68.3999 46.593 67.7332 48.1302 67.7332C50.0069 67.7332 51.1858 69.7764 51.1957 69.7937C51.3298 70.0351 51.5617 70.2061 51.8306 70.2654C52.0991 70.3243 52.3818 70.2639 52.604 70.1011C52.6262 70.0846 54.858 68.473 57.2781 68.9996C58.6796 69.3044 59.9137 70.2768 60.9526 71.8933C59.1955 73.9747 57.9147 76.6623 57.2517 79.7396ZM47.2599 52.6065C47.2397 52.4127 46.8134 47.8402 51.0761 46.1093C54.0696 44.8936 56.732 47.3799 58.0302 48.9333C56.1415 49.4928 54.4086 50.5106 52.9619 51.9401C52.713 51.8477 52.4411 51.7838 52.1424 51.7564C50.6927 51.6254 49.0017 52.6382 47.7323 54.4037C46.2251 56.5001 45.7712 58.9969 46.453 61.2263C45.4852 61.6769 44.9748 62.4324 44.739 63.1062C44.5361 63.14 44.312 63.1949 44.0814 63.281C43.2172 62.6369 42.4243 60.7269 42.5218 58.679C42.5931 57.1839 43.2118 54.5418 46.5529 53.6433C47.0095 53.5208 47.3092 53.079 47.2599 52.6065ZM52.5063 28.9513L55.58 30.8742V44.4938C54.6509 44.0609 53.6181 43.7958 52.5063 43.8419V28.9513ZM61.8238 60.0912C61.6842 60.1546 61.5324 60.2317 61.3735 60.3225C60.885 58.6948 60.0464 57.4704 58.8667 56.6752C57.6074 55.8262 56.245 55.6737 55.3127 55.6984C55.2151 54.8641 54.9643 53.9241 54.4637 53.1695C56.7022 51.0475 59.7146 50.0592 62.8557 50.4451C65.154 50.7276 67.2635 51.7447 68.4729 53.0904C68.2953 53.1933 68.133 53.304 67.9897 53.4165C65.8676 53.3533 64.2419 53.9495 63.1619 55.1923C61.8009 56.7592 61.7356 58.9148 61.8238 60.0912ZM48.355 60.8666C47.7549 59.1666 48.0936 57.1992 49.2903 55.5349C50.2202 54.2418 51.3387 53.6227 51.9686 53.6801C53.5079 53.8208 53.4384 56.7 53.4373 56.7267C53.424 57.0284 53.5547 57.3184 53.7859 57.5116C54.0172 57.7045 54.328 57.7768 54.6205 57.7085C54.6379 57.7045 56.3788 57.3122 57.8126 58.2902C58.7804 58.9502 59.4271 60.1051 59.7402 61.7243C59.0912 62.5365 58.4684 63.7643 58.2855 65.5666C57.4109 63.6187 56.0387 62.7322 55.1524 62.346C53.6107 61.674 52.0471 61.7608 50.9407 62.1752C50.3574 61.5575 49.4681 60.9526 48.355 60.8666ZM43.9611 66.2479C44.0053 65.9069 44.111 65.5895 44.3216 65.3684C44.731 64.9385 45.4238 64.9884 45.4261 64.9884C45.695 65.0169 45.9626 64.9311 46.1646 64.751C46.3668 64.5712 46.4842 64.3142 46.4882 64.043C46.4884 64.0352 46.5107 63.2488 47.3976 62.9203C48.8672 62.3765 49.7484 63.7334 49.8403 63.8839C49.9768 64.1148 50.2027 64.2783 50.464 64.335C50.7253 64.3918 50.9982 64.3364 51.2172 64.1826C51.7452 63.8121 53.0777 63.5467 54.3873 64.1174C55.5105 64.607 56.3197 65.5868 56.7722 66.9816C54.8899 66.843 53.2444 67.5201 52.3013 68.0287C51.5708 67.124 50.1565 65.8018 48.1302 65.8018C46.6868 65.8018 45.7723 66.234 45.2019 66.7141C45.0118 66.5712 44.7903 66.4454 44.5355 66.3591C44.3764 66.3058 44.1828 66.2612 43.9611 66.2479ZM60.2772 68.3103C59.4668 62.5568 62.9175 61.7223 63.0586 61.6911C63.3099 61.6414 63.5309 61.4928 63.6728 61.2786C63.8147 61.0644 63.8657 60.8021 63.8143 60.5501C63.8091 60.5243 63.3267 57.9397 64.6099 56.4626C65.3421 55.6197 66.5725 55.2499 68.2684 55.3635C68.5499 55.3825 68.8171 55.2831 69.0132 55.0812C69.1302 54.9657 69.5195 54.6205 70.0759 54.521C70.1036 54.5181 70.131 54.5133 70.1585 54.508C70.6209 54.448 71.189 54.5633 71.8078 55.1057C73.32 56.4309 73.6238 59.5397 73.6147 60.6666C72.9536 60.6606 72.324 60.7789 71.7301 61.025C70.353 61.5953 69.5334 62.7139 69.1201 63.45C68.3573 63.417 67.1681 63.5327 66.0934 64.343C64.8015 65.3172 64.0606 66.9773 63.8863 69.2804C63.3392 69.6372 62.8171 70.038 62.323 70.4801C61.7047 69.5885 61.0211 68.8654 60.2772 68.3103ZM67.2307 65.8999C68.2125 65.1468 69.4478 65.4245 69.4527 65.4253C69.9261 65.5448 70.4169 65.2821 70.5882 64.8218C70.5937 64.8072 71.1512 63.3446 72.4768 62.8045C73.3677 62.4412 74.4552 62.5598 75.7087 63.1566C75.9993 63.295 76.3396 63.2781 76.6154 63.1114C77.1527 62.7868 78.3803 62.3201 78.9207 62.6556C79.2224 62.8433 79.3987 63.3605 79.433 64.1177C77.7299 64.2471 76.7491 65.3703 76.2927 66.3567C74.9312 66.4777 74.0217 67.2898 73.5018 68.0769C71.0181 67.1831 68.4109 67.2259 65.9794 68.1915C66.2126 67.1369 66.6349 66.357 67.2307 65.8999ZM61.6131 44.2035C61.6419 44.2012 61.6702 44.1974 61.6983 44.1927C62.5228 44.0903 63.2284 44.2017 63.6674 44.3108C65.4525 44.7548 66.8543 46.0779 67.0007 47.4567C67.0336 47.7666 67.2144 48.041 67.4846 48.1944C67.7547 48.3478 68.0827 48.3602 68.364 48.2287C68.5866 48.1247 73.8436 45.7324 76.4514 50.3292C79.1478 55.082 77.4058 57.5732 77.3383 57.6664C77.122 57.9466 77.0569 58.3212 77.1993 58.6457C77.3404 58.9674 77.6257 59.1847 77.9734 59.216C78.0457 59.2301 78.498 59.3334 78.8126 59.7853C78.9766 60.0209 79.0807 60.3262 79.1305 60.6864C78.0477 60.4372 76.8909 60.8375 76.2073 61.1525C76.1344 60.8087 75.9897 60.5137 75.7682 60.2744C75.6895 60.1896 75.6054 60.1168 75.5183 60.0545C75.4416 58.6429 75.0468 55.3814 73.0708 53.6499C72.1802 52.8693 71.2931 52.5716 70.4902 52.5521C69.0831 50.4705 66.2602 48.918 63.0888 48.5282C62.091 48.4056 61.1041 48.4009 60.1427 48.5074C59.7537 47.9659 59.0635 47.0896 58.1334 46.2408C59.2732 44.8793 60.5381 44.3551 61.6131 44.2035ZM44.4225 16.824C43.9467 17.1148 43.5053 17.3465 43.088 17.5239C43.3722 16.7287 43.7859 15.6899 44.3511 14.5256L47.4285 13.5718C46.8761 14.699 46.0786 15.7143 44.9775 16.506C44.7855 16.6019 44.5998 16.7073 44.4225 16.824ZM48.2013 11.3111L45.674 12.0945C46.4355 10.8416 47.3579 9.54365 48.4654 8.31152C48.4939 9.29742 48.4156 10.3173 48.2013 11.3111ZM41.8234 11.3442C42.5516 9.14871 44.7235 8.09795 46.5302 7.59679C43.935 10.6591 42.3781 13.9551 41.5368 16.149C41.2604 14.9433 41.176 13.2954 41.8234 11.3442ZM37.5206 18.4235C38.0797 18.8698 38.6255 19.1981 39.1579 19.4304C42.9962 21.6014 45.4498 21.6312 45.5654 21.6312C46.0933 21.6312 46.5187 21.2033 46.5228 20.6726C46.5267 20.1422 46.1003 19.7078 45.5726 19.6999C45.5595 19.6998 44.9088 19.6816 43.7619 19.3436C44.3463 19.0979 44.9051 18.7903 45.4368 18.4646C45.597 18.3445 45.7978 18.309 45.954 18.1762C47.9303 17.2608 51.013 17.8255 53.271 19.5899C56.0369 21.7512 57.0206 25.0999 56.0484 28.8925L52.053 26.3932C51.7489 26.2008 51.3414 26.2007 51.0373 26.3932L46.5501 29.2006L42.0631 26.3932C41.7523 26.1986 41.3583 26.1986 41.0474 26.3932L36.5605 29.2006L32.0735 26.3932C31.7627 26.1986 31.3685 26.1986 31.0577 26.3932L26.9844 28.9421C25.9882 25.1214 26.9754 21.7459 29.7654 19.5768C32.202 17.6826 35.5973 17.1806 37.5206 18.4235ZM30.5722 6.35419C32.1536 5.05865 34.4189 5.11417 35.6953 5.91596C36.2562 6.26825 36.8718 6.91587 36.6186 7.9993C36.4368 8.77711 36.1149 9.29259 35.6618 9.53158C34.916 9.92475 33.9443 9.54993 33.9408 9.54864C33.4594 9.35101 32.9076 9.57697 32.6972 10.0548C32.5194 10.4581 31.877 11.5584 31.0506 11.8027C30.6542 11.9199 30.2271 11.8219 29.7445 11.5031C29.5064 11.3457 29.2111 11.3025 28.938 11.3857C28.6652 11.4688 28.4431 11.6693 28.3318 11.9329C28.1883 12.2728 27.6457 13.2327 26.9152 13.6027C26.6053 13.5215 26.3614 13.4673 26.1972 13.4337C27.0193 11.3038 28.6683 7.88326 30.5722 6.35419ZM22.1804 9.782C21.4925 9.26089 21.2769 8.00364 21.2521 7.56654C21.2265 7.05202 20.7966 6.64919 20.2854 6.64919C20.2809 6.64919 20.2764 6.64919 20.2719 6.64919C20.2593 6.64807 19.2205 6.65595 18.6604 6.02427C18.3201 5.64028 18.1995 5.04384 18.302 4.25171C18.4449 3.148 19.2479 2.75982 19.8964 2.62849C21.3724 2.33011 23.5117 3.0796 24.5377 4.85168C25.1577 5.92256 25.6237 7.51375 25.8918 9.46576C25.4704 10.2613 25.1119 11.0355 24.821 11.7145C24.7286 11.3642 24.6878 11.045 24.6791 10.8658C24.6674 10.5796 24.5297 10.3134 24.3035 10.1391C24.0774 9.96483 23.7856 9.90045 23.5077 9.96354C22.9445 10.0913 22.5104 10.0319 22.1804 9.782ZM22.4734 14.9087C24.2723 14.9457 25.5547 15.2735 25.5661 15.2764C25.6931 15.3104 26.8781 15.4882 28.6278 16.2221C29.2578 16.4884 29.763 16.7578 30.1505 17.0345C29.611 17.3237 29.0871 17.6621 28.5895 18.049C27.0416 19.2525 23.8895 22.4645 24.8362 28.1141L22.0859 26.3928C21.7748 26.1983 21.3809 26.1983 21.0698 26.3928L17.8821 28.3878C17.9056 27.3396 17.9516 25.9734 18.0241 24.5527C19.0676 24.571 20.7977 24.6423 21.9747 24.9016C23.1801 25.1916 23.6133 23.2657 22.3863 23.0151C21.0786 22.7268 19.2665 22.6446 18.1388 22.6226C18.2243 21.3734 18.3219 20.3147 18.4607 19.2257C19.6255 19.2084 21.7715 19.2183 22.9943 19.4793C24.2017 19.7613 24.6219 17.8326 23.3935 17.5902C22.0958 17.3132 20.0415 17.2796 18.7525 17.2904C18.8694 16.7247 19.0009 16.3499 19.2431 15.9366C19.758 15.1345 20.6602 14.871 22.4734 14.9087ZM13.4744 27.2543L15.4022 21.1804C15.6854 21.4194 15.9743 21.721 16.2499 22.1006C16.2165 22.5582 16.186 23.0243 16.1585 23.4911C16.1577 23.5003 16.1575 23.5098 16.1569 23.519C16.0403 25.5027 15.9753 27.4892 15.9516 28.8043L13.4744 27.2543ZM13.1168 11.9133C15.1628 12.0981 15.5006 13.8133 15.5312 13.9994C15.5683 14.2593 15.6694 14.4983 15.8814 14.6515C16.0888 14.8013 16.3086 14.8671 16.5584 14.8258C16.6726 14.8316 17.0321 14.9014 17.307 15.5062C16.8443 16.5826 16.6796 17.943 16.4947 19.4735C16.4905 19.5076 16.4866 19.5432 16.4825 19.5776C15.8066 19.0417 15.0608 18.673 14.3237 18.4715C14.0069 17.5471 13.279 15.6533 12.1254 13.9279C12.1567 13.3482 12.3102 12.4014 12.6991 12.0372C12.7811 11.9606 12.8886 11.8924 13.1168 11.9133ZM7.92533 12.5294C10.4307 13.6138 12.1937 17.9863 12.6613 19.5789C12.7981 20.0511 13.1918 20.2629 13.6657 20.2952L12.2009 24.9105L5.56239 12.5184C6.38991 12.1972 7.16683 12.2009 7.92533 12.5294ZM3.2832 14.9248C3.39355 14.4164 3.61665 13.9746 3.95506 13.5922L10.8802 26.5193L7.02621 28.931C5.90192 28.0685 5.2653 27.1378 5.13237 26.1587C4.93249 24.6872 5.93891 23.4956 5.94532 23.4881C6.2541 23.1374 6.26771 22.614 5.97783 22.2473C5.04316 21.0637 2.73691 17.4415 3.2832 14.9248ZM2.5625 28.9516L6.0877 31.1576C6.39872 31.3521 6.79271 31.3521 7.10357 31.1576L11.5899 28.3503L16.0763 31.1576C16.3872 31.3521 16.7813 31.3521 17.0922 31.1576L21.5777 28.3503L26.0637 31.1576C26.3747 31.3521 26.7685 31.3521 27.0797 31.1576L31.5658 28.3503L36.0528 31.1576C36.3636 31.3521 36.7576 31.3521 37.0686 31.1576L41.5556 28.3502L46.0424 31.1576C46.3535 31.3521 46.7472 31.3521 47.0582 31.1576L50.5846 28.9514V44.2315C46.5238 45.6902 45.2799 49.6665 45.3103 52.0138C42.4565 53.0576 40.7537 55.4152 40.6023 58.5869C40.4891 60.9595 41.3013 63.2702 42.5654 64.5053C42.0782 65.2763 41.9119 66.2995 42.0711 67.5574C42.0711 67.5582 42.0714 67.5589 42.0714 67.5595C42.0714 67.56 42.0714 67.5607 42.0714 67.5611C42.587 71.5068 44.5158 75.1061 47.5023 77.6959C48.4412 78.5099 49.4686 79.2066 50.56 79.7827H2.5625V28.9516ZM64.8167 79.7826H59.2142C60.2263 75.5353 62.6126 72.0859 65.7348 70.4257C68.2153 69.1068 70.9968 69.021 73.566 70.1843C73.8162 70.2976 74.1013 70.3022 74.3517 70.1896C74.6022 70.0769 74.7915 69.8664 74.8743 69.6034C74.9248 69.4534 75.4101 68.1433 76.8777 68.2839C77.3592 68.3296 77.7991 68.0174 77.9053 67.5426C77.9637 67.302 78.2748 66.2843 79.379 66.0762C78.8864 73.7173 72.5431 79.7826 64.8167 79.7826Z" fill="#BF2123"/>
<path d="M36.6424 43.802C36.3208 43.2153 35.4231 43.1613 35.0552 43.7249C34.9647 43.8325 33.749 45.2158 29.4246 47.3722C28.836 47.6658 28.2872 47.9772 27.774 48.3044C22.5882 45.3986 15.7258 47.0711 15.4263 47.1464C15.0757 47.2343 14.7922 47.5294 14.7187 47.8851C14.6925 48.0113 14.0856 51.016 15.0864 54.5783C16.0131 57.8764 18.5367 62.2816 25.2916 64.5568C25.5083 64.6265 25.5493 64.6175 25.8238 64.6212C26.5013 64.6212 28.567 64.5521 30.8415 63.7951C34.5352 62.5655 37.0008 60.1123 37.975 56.7006C37.9766 56.6955 37.9784 56.6905 37.9798 56.6853C37.9808 56.6818 37.9821 56.6784 37.9832 56.6747C39.9779 49.6228 36.7886 44.0501 36.6518 43.8163C36.6491 43.8113 36.6454 43.807 36.6424 43.802ZM35.9908 47.2575C36.5978 49.2508 37.1074 52.2798 36.2548 55.694C34.5357 56.362 32.8838 56.7085 31.6852 56.887C33.9035 53.066 35.2477 49.5579 35.9908 47.2575ZM30.279 49.1021C31.904 48.2918 33.1276 47.5769 34.0457 46.9748C32.8944 50.412 30.4252 56.3934 25.8493 61.9193C24.5752 59.1004 24.2597 56.6258 24.9184 54.5513C25.6326 52.1488 27.9553 50.2224 30.279 49.1021ZM25.9361 49.6924C24.7866 50.7175 23.8539 51.9882 23.3209 53.3261C23.2611 53.2838 23.202 53.2424 23.1417 53.1988V48.7561C24.121 48.9172 25.1098 49.1815 26.0442 49.5946C26.0077 49.6266 25.9721 49.6599 25.9361 49.6924ZM21.2196 48.559V51.7125C19.9342 50.6645 18.6693 49.5434 17.7462 48.704C18.6831 48.5889 19.8995 48.4997 21.2196 48.559ZM16.9572 54.1274C16.5197 52.6057 16.4233 51.1838 16.4394 50.1228C18.0464 51.5862 20.6873 53.9003 22.7795 55.2944C22.6833 55.9101 22.6476 56.5463 22.6726 57.2021C22.7329 58.7996 23.1425 60.3615 23.7269 61.8455C20.219 60.1545 17.9459 57.5661 16.9572 54.1274ZM30.2896 61.9443C29.4142 62.2399 28.566 62.4183 27.8392 62.5264C28.7817 61.3459 29.6323 60.1548 30.3991 58.9774C31.2774 58.9135 33.1562 58.707 35.3428 58.048C34.3124 59.8499 32.621 61.157 30.2896 61.9443Z" fill="#BF2123"/>
<path d="M75.7638 42.823C75.9002 42.8904 76.0449 42.9224 76.1872 42.9224C76.542 42.9224 76.8831 42.7243 77.0503 42.3828L77.7592 40.9349C77.9935 40.4562 77.7973 39.8775 77.3212 39.6422C76.8448 39.4068 76.2691 39.6041 76.0348 40.0824L75.3259 41.5303C75.0913 42.0088 75.2875 42.5877 75.7638 42.823Z" fill="#BF2123"/>
<path d="M71.7043 42.0359C72.0964 43.2325 73.9412 42.5896 73.5235 41.4134L73.0059 39.886C72.835 39.3811 72.289 39.1116 71.7865 39.2831C71.2841 39.455 71.0156 40.0036 71.1867 40.5085L71.7043 42.0359Z" fill="#BF2123"/>
<path d="M77.7483 45.0237C77.9184 45.5335 78.4788 45.7978 78.9677 45.6265L80.4878 45.1064C80.9902 44.9345 81.2586 44.3859 81.0876 43.881C80.9167 43.376 80.3709 43.1066 79.8681 43.2781L78.3481 43.7983C77.8459 43.9702 77.5773 44.5188 77.7483 45.0237Z" fill="#BF2123"/>
<path d="M61.5366 35.6302C62.0673 35.6302 62.4976 35.1979 62.4976 34.6646C62.4976 34.1313 62.0673 33.699 61.5366 33.699C61.0059 33.699 60.5757 34.1313 60.5757 34.6646C60.5757 35.1979 61.0059 35.6302 61.5366 35.6302Z" fill="#BF2123"/>
</svg>
